<?xml version="1.0" encoding="UTF-8" standalone="no"?>
<!-- Created with Inkscape (http://www.inkscape.org/) -->

<svg
   xmlns:dc="http://purl.org/dc/elements/1.1/"
   xmlns:cc="http://creativecommons.org/ns#"
   xmlns:rdf="http://www.w3.org/1999/02/22-rdf-syntax-ns#"
   xmlns:svg="http://www.w3.org/2000/svg"
   xmlns="http://www.w3.org/2000/svg"
   xmlns:sodipodi="http://sodipodi.sourceforge.net/DTD/sodipodi-0.dtd"
   xmlns:inkscape="http://www.inkscape.org/namespaces/inkscape"
   id="svg2"
   version="1.1"
   inkscape:version="0.48.3.1 r9886"
   width="256"
   height="256"
   xml:space="preserve"
   sodipodi:docname="spreedWaves.svg"
   inkscape:export-filename="/home/domain/longsleep/Desktop/spreedio/spreed_waves_big.png"
   inkscape:export-xdpi="394.16"
   inkscape:export-ydpi="394.16"><metadata
     id="metadata8"><rdf:RDF><cc:Work
         rdf:about=""><dc:format>image/svg+xml</dc:format><dc:type
           rdf:resource="http://purl.org/dc/dcmitype/StillImage" /><dc:title></dc:title></cc:Work></rdf:RDF></metadata><defs
     id="defs6"><clipPath
   clipPathUnits="userSpaceOnUse"
   id="clipPath18"><path
     d="m 0,0 5244,0 0,1870.87 -5244,0 L 0,0 z"
     id="path20"
     inkscape:connector-curvature="0" /></clipPath>
</defs><sodipodi:namedview
     pagecolor="#ffffff"
     bordercolor="#666666"
     borderopacity="1"
     objecttolerance="10"
     gridtolerance="10"
     guidetolerance="10"
     inkscape:pageopacity="0"
     inkscape:pageshadow="2"
     inkscape:window-width="1265"
     inkscape:window-height="752"
     id="namedview4"
     showgrid="true"
     showguides="false"
     inkscape:guide-bbox="true"
     fit-margin-top="0"
     fit-margin-left="0"
     fit-margin-right="0"
     fit-margin-bottom="0"
     borderlayer="false"
     showborder="true"
     inkscape:showpageshadow="true"
     inkscape:zoom="2"
     inkscape:cx="126.78497"
     inkscape:cy="108.23884"
     inkscape:window-x="986"
     inkscape:window-y="262"
     inkscape:window-maximized="0"
     inkscape:current-layer="g10"
     inkscape:snap-from-guide="true"
     width="512px"><sodipodi:guide
       position="0.00032359136,-108.69241"
       orientation="0,855.51001"
       id="guide3801" /><sodipodi:guide
       position="855.51034,-108.69241"
       orientation="-233.8625,0"
       id="guide3803" /><sodipodi:guide
       position="-6.5,126.31141"
       orientation="0,-855.51001"
       id="guide3805" /><sodipodi:guide
       position="0.00032359136,125.17008"
       orientation="233.8625,0"
       id="guide3807" /><sodipodi:guide
       orientation="0,1"
       position="-9.5,-0.18859756"
       id="guide3815" /><sodipodi:guide
       orientation="1,0"
       position="146.50049,125.17008"
       id="guide4561" /></sodipodi:namedview><g
     id="g10"
     inkscape:groupmode="layer"
     inkscape:label="waves"
     transform="matrix(1.25,0,0,-1.25,3.2359136e-4,364.6925)"
     style="display:inline"><g
   transform="matrix(0.1729173,0,0,0.1729173,-5.725502,4.0242789)"
   id="g16"
   clip-path="url(#clipPath18)"><path
     d="m 667.434,1427.23 c 5.625,40.32 50,105 131.25,105 81.25,0 263.75,0 292.496,0 28.75,0 62.5,-6.25 83.75,40 -1.25,-30 -8.75,-130 -11.25,-146.25 -2.5,-16.25 -22.5,-137.5 -136.246,-138.75 -113.75,0 -297.5,0 -297.5,0 0,0 -58.75,6.88 -88.438,-46.25 -0.191,-0.39 20.938,152.5 25.938,186.25"
     style="fill:#009534;fill-opacity:1;fill-rule:nonzero;stroke:none"
     id="path22"
     inkscape:connector-curvature="0" /><path
     d="m 135.7852,939.398 c 11.2304,81.493 99.8238,212.27 262.0348,212.27 162.215,0 526.571,0 583.969,0 57.399,0 124.781,-12.637 167.201,80.862 -2.49,-60.647 -17.47,-262.811 -22.46,-295.659 -4.99,-32.851 -44.92,-277.973 -272.014,-280.5 -227.098,0 -593.95,0 -593.95,0 0,0 -118.9879,13.098 -176.5621,-93.5 -0.3828,-0.801 41.8008,308.301 51.7813,376.527"
     style="fill:#84b819;fill-opacity:1;fill-rule:nonzero;stroke:none"
     id="path24"
     inkscape:connector-curvature="0" /></g><text
   transform="scale(1,-1)"
   sodipodi:linespacing="125%"
   id="text3013"
   y="-87.199997"
   x="580"
   style="font-size:9.60000038px;font-style:normal;font-weight:normal;line-height:125%;letter-spacing:0px;word-spacing:0px;fill:#000000;fill-opacity:1;stroke:none;font-family:Bitstream Vera Sans"
   xml:space="preserve"><tspan
     y="-87.199997"
     x="580"
     id="tspan3015"
     sodipodi:role="line" /></text>


<g
   inkscape:groupmode="layer"
   id="layer2"
   inkscape:label="mask"
   style="display:inline" /></g></svg>