<?xml version="1.0" encoding="UTF-8" standalone="no"?>
<!-- Created with Inkscape (http://www.inkscape.org/) -->

<svg
   xmlns:dc="http://purl.org/dc/elements/1.1/"
   xmlns:cc="http://creativecommons.org/ns#"
   xmlns:rdf="http://www.w3.org/1999/02/22-rdf-syntax-ns#"
   xmlns:svg="http://www.w3.org/2000/svg"
   xmlns="http://www.w3.org/2000/svg"
   xmlns:sodipodi="http://sodipodi.sourceforge.net/DTD/sodipodi-0.dtd"
   xmlns:inkscape="http://www.inkscape.org/namespaces/inkscape"
   id="svg2"
   version="1.1"
   inkscape:version="0.48.3.1 r9886"
   preserveAspectRatio="xMinYMin meet"
   viewBox="0 0 736.50372 232.21382"
   width="736.50372"
   height="232.21382"
   xml:space="preserve"
   sodipodi:docname="spreedmeLogo.svg"><metadata
     id="metadata8"><rdf:RDF><cc:Work
         rdf:about=""><dc:format>image/svg+xml</dc:format><dc:type
           rdf:resource="http://purl.org/dc/dcmitype/StillImage" /><dc:title /></cc:Work></rdf:RDF></metadata><defs
     id="defs6"><clipPath
       clipPathUnits="userSpaceOnUse"
       id="clipPath18"><path
         d="m 0,0 5244,0 0,1870.87 -5244,0 L 0,0 z"
         id="path20"
         inkscape:connector-curvature="0" /></clipPath></defs><sodipodi:namedview
     pagecolor="#ffffff"
     bordercolor="#666666"
     borderopacity="1"
     objecttolerance="10"
     gridtolerance="10"
     guidetolerance="10"
     inkscape:pageopacity="0"
     inkscape:pageshadow="2"
     inkscape:window-width="1504"
     inkscape:window-height="924"
     id="namedview4"
     showgrid="false"
     showguides="true"
     inkscape:guide-bbox="true"
     fit-margin-top="0"
     fit-margin-left="0"
     fit-margin-right="0"
     fit-margin-bottom="0"
     borderlayer="false"
     showborder="false"
     inkscape:showpageshadow="false"
     inkscape:zoom="0.70710678"
     inkscape:cx="355.82367"
     inkscape:cy="116.54258"
     inkscape:window-x="395"
     inkscape:window-y="172"
     inkscape:window-maximized="0"
     inkscape:current-layer="flowRoot3025"><sodipodi:guide
       position="-2.5001639,-0.38867555"
       orientation="0,855.51001"
       id="guide3801" /><sodipodi:guide
       position="853.00985,-0.38867555"
       orientation="-233.8625,0"
       id="guide3803" /><sodipodi:guide
       position="853.00985,233.47382"
       orientation="0,-855.51001"
       id="guide3805" /><sodipodi:guide
       position="-2.5001639,233.47382"
       orientation="233.8625,0"
       id="guide3807" /><sodipodi:guide
       orientation="0,1"
       position="386.49984,59.611324"
       id="guide3815" /></sodipodi:namedview><g
     id="g10"
     inkscape:groupmode="layer"
     inkscape:label="ink_ext_XXXXXX"
     transform="matrix(1.25,0,0,-1.25,-2.5001639,232.6025)"><g
       id="g12"
       transform="scale(0.1,0.1)"><g
   id="g14"><g
     id="g16"
     clip-path="url(#clipPath18)"><path
       d="m 603.434,1251.23 c 5.625,40.32 50,105 131.25,105 81.25,0 263.75,0 292.496,0 28.75,0 62.5,-6.25 83.75,40 -1.25,-30 -8.75,-130 -11.25,-146.25 -2.5,-16.25 -22.5,-137.5 -136.246,-138.75 -113.75,0 -297.5,0 -297.5,0 0,0 -58.75,6.88 -88.438,-46.25 -0.191,-0.39 20.938,152.5 25.938,186.25"
       style="fill:#009534;fill-opacity:1;fill-rule:nonzero;stroke:none"
       id="path22"
       inkscape:connector-curvature="0" /><path
       d="m 71.7852,763.398 c 11.2304,81.493 99.8238,212.27 262.0348,212.27 162.215,0 526.571,0 583.969,0 57.399,0 124.781,-12.637 167.201,80.862 -2.49,-60.647 -17.47,-262.811 -22.46,-295.659 -4.99,-32.851 -44.92,-277.973 -272.014,-280.5 -227.098,0 -593.95,0 -593.95,0 0,0 -118.9879,13.098 -176.5621,-93.5 -0.3828,-0.801 41.8008,308.301 51.7813,376.527"
       style="fill:#84b819;fill-opacity:1;fill-rule:nonzero;stroke:none"
       id="path24"
       inkscape:connector-curvature="0" /><path
       d="m 1788.12,1102.35 c 0,0 8.18,103.6 2.5,144.51 -5.13,36.92 -22.15,69.16 -58.12,93.12 -35.97,23.97 -97.73,36.6 -170.36,37.52 -90.51,0.24 -149.64,-22.52 -196.52,-64.39 -52.28,-46.7 -69.37,-92.5 -78.12,-166.88 -8.05,-68.41 15,-128.75 46.7,-166.683 29.08,-34.809 172.67,-144.559 172.67,-144.559 25,-20.937 86.88,-66.879 79.38,-131.25 -4.65,-39.937 -13.75,-59.379 -33.75,-78.75 -22.56,-21.859 -43.75,-29.379 -80.63,-30.629 -20.05,-0.679 -50.13,1.641 -68.56,17.43 -17.5,15 -25.89,42.481 -24.6,101.281 l 0,34.231 -166.84,-0.442 -1.25,-31.25 c 0.62,-93.289 9.55,-155.007 42.5,-187.5 44.38,-43.75 84.33,-61.14 191.88,-61.871 89.66,-0.578 135.18,12.742 198.75,55 63.56,42.25 95.36,99.582 108.12,191.871 10.63,76.879 -8.42,115.391 -33.75,154.379 -25.33,38.985 -65,63.121 -109.85,102.461 0,0 -117.96,102.271 -133.9,120.661 -15.93,18.39 -22.89,63.37 -12.5,95 14.38,43.75 43.43,60.93 78.75,63.75 46.88,3.75 68.61,-12.13 82.19,-36.56 12.5,-22.5 5.94,-69.07 2.81,-110.45 l 162.5,0"
       style="fill:#000000;fill-opacity:1;fill-rule:nonzero;stroke:none"
       id="path26"
       inkscape:connector-curvature="0" /><path
       d="m 2613.45,491.48 163.68,0 65.37,520.38 c 13.27,78.68 36.73,132.16 75,161.25 40.03,30.44 63.75,44.37 152.5,41.25 l 12.5,162.5 c -5.24,1.68 -82.5,-3.13 -131.25,-38.75 -37.35,-27.29 -75,-80 -75,-80 l 12.5,105 -166.25,0 -109.05,-871.63"
       style="fill:#000000;fill-opacity:1;fill-rule:nonzero;stroke:none"
       id="path28"
       inkscape:connector-curvature="0" /><path
       d="m 3677.5,1288.11 c -37.56,65.73 -119.26,97.75 -237.5,98.75 -89.82,-1.58 -170.01,-16.6 -228.75,-87.5 -36.25,-43.75 -60.08,-95.45 -72.5,-170 -12.5,-75 -19.28,-141.505 -28.75,-218.751 -16.25,-132.5 -22.5,-216.25 -6.25,-281.25 13.04,-52.168 45.62,-106.25 93.12,-129.371 44.44,-21.636 101.81,-30.09 150.63,-28.129 95.24,1.032 170.43,18.86 227.5,78.129 48.75,50.621 72.5,108.75 79.37,211.25 l -153.75,0 c -2.03,-18.75 -5.26,-35.297 -14.32,-65.929 -9.02,-30.489 -16.01,-46.879 -36.3,-65.95 -20.63,-19.371 -56.57,-28.75 -85.63,-28.75 -47.5,2.5 -68.75,5.629 -91.87,31.25 -21.6,23.942 -18,60.403 -16.25,100.629 1.87,43.121 13.75,139.996 13.75,139.996 l 403.12,0 c 18.75,148.126 54.38,328.126 4.38,415.626 z m -141.25,-220.63 -7.5,-76.511 -246.25,-0.36 6.25,66.871 c 7.25,58.62 11.87,88.13 35,133.13 23.6,45.94 56.89,64.66 111.87,66.87 48.4,-1.2 75.63,-13.12 93.13,-48.75 17.23,-35.08 13.1,-75.21 7.5,-141.25"
       style="fill:#000000;fill-opacity:1;fill-rule:nonzero;stroke:none"
       id="path30"
       inkscape:connector-curvature="0" /><path
       d="m 5209.89,1860.82 -163.68,0 -70.59,-556.46 c -21.72,32.52 -30,41.25 -56.87,58.12 -31.23,19.61 -72.37,21.9 -119.38,21.25 -45.94,-0.62 -80.67,-7.12 -121.32,-33.4 -43.05,-27.85 -68.68,-64.1 -97.16,-128.4 -29.53,-66.7 -34.91,-159.7 -53.39,-286.321 -21.74,-149.8 -36.11,-256.25 -16.25,-334.371 21.42,-84.277 88.45,-120.179 155.62,-124.379 70,-4.371 110.87,12.84 147.5,35.629 28.13,17.5 41.88,30 63.75,55.621 l -6.87,-76.25 162.5,0.629 176.14,1368.332 z m -255.52,-675.21 c 3.13,-62.5 -8.12,-165 -21.87,-270.001 -12.28,-93.769 -21.25,-165 -45,-231.25 -20.84,-58.109 -54.38,-87.57 -127.19,-87.16 -50.94,0.289 -76.66,19.352 -88.44,60.289 -13.12,45.621 2.5,171.25 16.46,270.207 16.25,115.135 26.67,204.165 43.54,250.415 19.86,54.43 55.63,83.75 125.54,83.63 53.84,-0.51 94.7,-30.97 96.96,-76.13"
       style="fill:#000000;fill-opacity:1;fill-rule:nonzero;stroke:none"
       id="path32"
       inkscape:connector-curvature="0" /><path
       d="m 2511.25,1248.11 c -20.32,84.35 -70.66,131.67 -168.75,132.5 -47.57,-0.53 -85.94,-13.43 -125,-34.38 -39.27,-21.04 -82.5,-68.75 -82.5,-68.75 l 9.37,84.38 -167.77,0 L 1800.62,3.10938 1970.35,3.12109 2040,547.488 c 23.88,-28.297 49.73,-48.687 78.46,-60.148 26.69,-10.641 54.04,-16.102 105.91,-16.731 45.63,3.75 98.12,22.821 124.38,43.75 46.25,36.879 58.75,55 85.62,113.75 30.22,66.071 35.63,161.25 54.38,279.375 21.63,149.806 43.12,254.996 22.5,340.626 z m -158.75,-88.75 c 1.87,-52.5 -8.75,-138.75 -20,-237.501 -16.25,-118.07 -23.17,-191.129 -49.38,-244.371 -24.49,-49.758 -55.94,-83.75 -114.69,-83.129 -44.06,0.313 -88.43,23.75 -98.29,68.403 -12.46,56.398 -0.61,166.859 15.43,271.375 11.73,93.843 25.2,164.913 43.18,223.973 17.5,57.5 67.82,92.39 126.26,93.63 58.82,-1.07 95.42,-34.48 97.49,-92.38"
       style="fill:#000000;fill-opacity:1;fill-rule:nonzero;stroke:none"
       id="path34"
       inkscape:connector-curvature="0" /><path
       d="m 4377.5,1288.11 c -37.56,65.73 -119.26,97.75 -237.5,98.75 -89.82,-1.58 -170.01,-16.6 -228.75,-87.5 -36.25,-43.75 -60.08,-95.45 -72.5,-170 -12.5,-75 -19.28,-141.505 -28.75,-218.751 -16.25,-132.5 -22.5,-216.25 -6.25,-281.25 13.04,-52.168 45.62,-106.25 93.12,-129.371 44.44,-21.636 101.81,-30.09 150.63,-28.129 95.24,1.032 170.43,18.86 227.5,78.129 48.75,50.621 72.5,108.75 79.37,211.25 l -153.75,0 c -2.03,-18.75 -5.26,-35.297 -14.32,-65.929 -9.02,-30.489 -16.01,-46.879 -36.3,-65.95 -20.63,-19.371 -56.57,-28.75 -85.63,-28.75 -47.5,2.5 -68.75,5.629 -91.87,31.25 -21.6,23.942 -18,60.403 -16.25,100.629 1.87,43.121 13.75,139.996 13.75,139.996 l 403.12,0 c 18.75,148.126 54.38,328.126 4.38,415.626 z m -141.25,-220.63 -7.5,-76.511 -246.25,-0.36 6.25,66.871 c 7.25,58.62 11.87,88.13 35,133.13 23.6,45.94 56.89,64.66 111.87,66.87 48.4,-1.2 75.63,-13.12 93.13,-48.75 17.23,-35.08 13.1,-75.21 7.5,-141.25"
       style="fill:#000000;fill-opacity:1;fill-rule:nonzero;stroke:none"
       id="path36"
       inkscape:connector-curvature="0" /></g></g><text
   xml:space="preserve"
   style="font-size:12px;font-style:normal;font-weight:normal;line-height:125%;letter-spacing:0px;word-spacing:0px;fill:#000000;fill-opacity:1;stroke:none;font-family:Bitstream Vera Sans"
   x="725"
   y="124.8625"
   id="text3013"
   sodipodi:linespacing="125%"
   transform="matrix(8,0,0,-8,0,1870.9)"><tspan
     sodipodi:role="line"
     id="tspan3015"
     x="725"
     y="124.8625" /></text>


<g
   transform="matrix(8,0,0,-8,-112,1277.1275)"
   style="font-size:72px;font-style:normal;font-weight:normal;line-height:125%;letter-spacing:0px;word-spacing:0px;fill:#000000;fill-opacity:1;stroke:none;font-family:Bitstream Vera Sans"
   id="flowRoot3025"><path
     d="m 677.69922,90.711252 7.41797,0 0,8.929688 -7.41797,0 0,-8.929688"
     style="text-align:start;text-anchor:start;fill:#000000"
     id="path3007" /><text
     xml:space="preserve"
     style="font-size:12px;font-style:normal;font-weight:normal;line-height:125%;letter-spacing:0px;word-spacing:0px;fill:#000000;fill-opacity:1;stroke:none;font-family:Bitstream Vera Sans"
     x="701"
     y="35.213821"
     id="text3006"
     sodipodi:linespacing="125%"
     transform="translate(16.500164,-72.961562)"><tspan
       sodipodi:role="line"
       id="tspan3008"></tspan></text>
<text
     xml:space="preserve"
     style="font-size:63.99999973px;font-style:normal;font-variant:normal;font-weight:normal;font-stretch:normal;line-height:125%;letter-spacing:0px;word-spacing:0px;fill:#000000;fill-opacity:1;stroke:none;font-family:Droid Sans Mono;-inkscape-font-specification:Droid Sans Mono"
     x="784"
     y="130.21382"
     id="text3010"
     sodipodi:linespacing="125%"
     transform="translate(16.500164,-72.961562)"><tspan
       sodipodi:role="line"
       id="tspan3012"
       x="784"
       y="130.21382" /></text>
<text
     xml:space="preserve"
     style="font-size:40px;font-style:normal;font-variant:normal;font-weight:500;font-stretch:normal;line-height:125%;letter-spacing:0px;word-spacing:0px;fill:#000000;fill-opacity:1;stroke:none;font-family:Droid Sans;-inkscape-font-specification:Droid Sans"
     x="805"
     y="131.21382"
     id="text3014"
     sodipodi:linespacing="125%"
     transform="translate(16.500164,-72.961562)"><tspan
       sodipodi:role="line"
       id="tspan3016"
       x="805"
       y="131.21382" /></text>
<text
     xml:space="preserve"
     style="font-size:64px;font-style:normal;font-variant:normal;font-weight:500;font-stretch:normal;line-height:125%;letter-spacing:0px;word-spacing:0px;fill:#000000;fill-opacity:1;stroke:none;font-family:Arial Black;-inkscape-font-specification:Arial Black"
     x="690.276"
     y="99.640938"
     id="text3018"
     sodipodi:linespacing="125%"><tspan
       sodipodi:role="line"
       id="tspan3020"
       x="690.276"
       y="99.640938"
       style="font-style:normal;font-variant:normal;font-weight:normal;font-stretch:normal;font-family:Liberation Sans;-inkscape-font-specification:Liberation Sans;font-size:69.9999997px">me</tspan></text>
</g></g></g></svg>